<?xml version="1.0" encoding="utf-8"?>
<!-- Generator: Adobe Illustrator 24.2.1, SVG Export Plug-In . SVG Version: 6.00 Build 0)  -->
<svg version="1.1" xmlns="http://www.w3.org/2000/svg" xmlns:xlink="http://www.w3.org/1999/xlink" x="0px" y="0px"
	 viewBox="0 0 283.5 419.5" style="enable-background:new 0 0 283.5 419.5;" xml:space="preserve">
<style type="text/css">
	.st0{display:none;}
	.st1{fill:#59261A;}
	.st2{fill:#9BDD5B;}
	.st3{fill:#FFFFFF;}
	.st4{fill:#619B24;}
	.st5{fill:#BF4D2E;}
	.st6{fill:#ED685A;}
	.st7{fill:none;stroke:#000000;stroke-width:2;stroke-miterlimit:10;}
	.st8{stroke:#000000;stroke-width:2;stroke-miterlimit:10;}
	.st9{stroke:#000000;stroke-miterlimit:10;}
</style>
<g id="Capa_1" class="st0">
	
		<image style="display:inline;overflow:visible;opacity:0.42;" width="602" height="670" xlink:href="8561A0E5.png"  transform="matrix(0.2057 0 0 0.2057 79.81 122.0949)">
	</image>
</g>
<g id="Capa_11">
	<ellipse class="st1" cx="152.6" cy="244.1" rx="49.9" ry="10.6"/>
</g>
<g id="Capa_3">
	<path class="st2" d="M188.6,235.2l-3.3-1.3l2.4-5.4l-0.7-6l-4-7.5l-0.8-9.3l7.8-12.1l-9.1-31.1l-4.9-5.7l-8.1-4.2l-4.7-3.4
		l-6.8-13.6l-4.9-1.6l-3.6,0.8l-13.3,17.1l-11.6,7.4l-6.7,14.6l-1.2,5.3l-4.8-6.8l-13.6-1.8l-2-3.6l1.8-4.5l4-1.5l4.3,0.5l3.6,3.9
		l0.5,4l6.1-4c0,0-0.3-1.6-0.3-1.7l0.6-6.3l-3.4-4.8l-7.7-4.6l-7.8,3.2l-5.6,4.2l-5.2,7.8l0.8,9.9l2.2,5l5.5,2.3l5.9,0.9l4.6,2.5
		l0.8,4.4l-2.7,6.7l-3.5,9.9l1.5,9.6l3.8,6.1l6.6,4.9l5.2,1.7l1.4,5l1.5,4.8h-2.3l-0.5,3.1l1.5,2.7h5.2l6.7-1.3l7.3-1.7l5.4,3.7
		l5.5,3.5l2.9-5.1l3.3-0.4l2.9,3.2l6.6-1.2l6.2-1.1l3.8,4l6.6-1.1l7.2-1.7l3.9-3.8L188.6,235.2z M119.2,211.2l-2.6-0.6l-2.6-2.1
		l-2.8-6l2-8l0.8-0.3l2.3,4.2l4.4,6.1L119.2,211.2z"/>
</g>
<g id="Capa_5">
	<path class="st3" d="M127.3,161.3c0,0-4.5,4.2-5.1,7.9c-0.8,4.3-0.8,6.9-0.8,7.7c0.1,0.8,1.2,5.4,2.7,6.6c1.5,1.2,5,2.2,5,2.2
		s5.2-1.2,6.3-2.6c1.1-1.4,3-5.9,3.2-8s0-8.3,0-8.3s-2.9-5.1-3.8-5.3c-0.8-0.2-3.1-0.9-3.1-0.9l-2.7,0.1"/>
	<path class="st3" d="M175.1,161.4c0,0,4.5,4.2,5.1,7.9c0.8,4.3,0.8,6.9,0.8,7.7c-0.1,0.8-1.2,5.4-2.7,6.6c-1.5,1.2-5,2.2-5,2.2
		s-5.2-1.2-6.3-2.6c-1.1-1.4-3-5.9-3.2-8c-0.3-2.2,0-8.3,0-8.3s2.9-5.1,3.8-5.3c0.8-0.2,3.1-0.9,3.1-0.9l2.7,0.1"/>
</g>
<g id="Capa_6">
	<path class="st4" d="M150.8,134.9c0,0-1.2,7.5-5.6,12.9c-4.5,5.4-7.3,8.3-7.5,9.4c-0.3,1.1-6.1,3.2-6.1,3.2l-4.3,1l-4,5l-1.8,6
		l0.1,6.1l2,4.4l3.7,2.9c0,0-0.3,4.6,2.8,7.8c3.1,3.2,4.8,3.4,4.8,3.4l4.2-0.8l-6.9,1.6l-7.9-4l-4.6-2.3c0,0-4-8.4-3.4-12.4
		c0.6-4,2.3-12.8,2.3-12.8l4.6-6.9l5.2-3.6l3.2-1l3.9-4.1l9.1-13.1l3.3-2.9L150.8,134.9z"/>
	<path class="st4" d="M121.4,206.2c0,0,1.2,7.3,1.6,8.4c0.4,1.1,3.3,4.4,3.3,4.4l4.3,5.5l8,2.4L128.1,215l-4.9-7.9L121.4,206.2z"/>
	<polygon class="st4" points="135.7,229.5 134.5,232.2 137.8,235.6 145.2,236.9 149.4,241.2 152.5,241.6 159.3,238.5 168.8,237.2 
		171,229.5 163.6,232.4 151.2,235.6 140.9,233.4 	"/>
	<path class="st4" d="M112.5,167c0,0-0.6-18.1-14.4-10.4c-13.8,7.7-5,16.4-5,16.4l11.2,3.8l5.5,3.2l1.3,4c0,0-5.6,15.2-4.1,21.7
		c1.5,6.5,0.6,9.3,4.7,10.9s7.9,2.4,7.9,2.4l-0.5-7.8l-5.6-2.7l-1.8-9.7l2.7-19.4l-2.3-6.3l-7.7-1.6l-6.1,0.4l-3.1-7.1l3.1-4.2
		l6.7,1.1l3.4,3.7l0.2,4L112.5,167z"/>
	<path class="st4" d="M140.4,211.6c0,0,10.6,15,17.7,10c7.2-5,8-12.9,8-12.9S159.7,215.1,140.4,211.6z"/>
	<path class="st4" d="M146.2,176.7c0,0-6.3,3-2.9,3.4c3.4,0.4,7.5,0,7.5,0l7.7,0.2l-1.1-4.2h-7.1L146.2,176.7"/>
	<circle class="st4" cx="150.3" cy="169.3" r="0.1"/>
	<circle class="st4" cx="148.5" cy="165" r="0.3"/>
	<circle class="st4" cx="153.2" cy="164.9" r="0.7"/>
	<circle class="st4" cx="156.5" cy="171" r="0.5"/>
	<circle class="st4" cx="148.1" cy="170.6" r="0.7"/>
	<circle class="st4" cx="143.2" cy="171.5" r="0.8"/>
	<circle class="st4" cx="143" cy="168.3" r="0.7"/>
	<circle class="st4" cx="156.5" cy="168.4" r="0.8"/>
	<circle class="st4" cx="160" cy="164.9" r="0.7"/>
	<circle class="st4" cx="159.4" cy="173.2" r="0.9"/>
	<circle class="st4" cx="146.2" cy="161.4" r="1"/>
	<ellipse class="st4" cx="155.3" cy="159.8" rx="1.4" ry="0.7"/>
	<ellipse class="st4" cx="163.9" cy="183.3" rx="0.7" ry="1.2"/>
	<path class="st4" d="M168.8,188c0,0-0.3,0-0.6,0c-0.4,0-0.6,0-0.6,0s0.3,0,0.6,0C168.5,188,168.8,188,168.8,188z"/>
	<ellipse class="st4" cx="173.3" cy="187.6" rx="1" ry="0.5"/>
	<circle class="st4" cx="139.4" cy="181.5" r="0.6"/>
	<ellipse class="st4" cx="134" cy="186.7" rx="0.5" ry="0.2"/>
</g>
<g id="Capa_8">
	<polygon class="st5" points="148.7,195 150.8,198.8 151.9,203.7 151.7,207.3 154,211.2 153.7,215.6 154,218.2 155.6,222.5 
		159.3,222.5 163.2,220.6 162.7,219.4 159.6,217.7 159.3,214.7 157.9,210.8 155.3,206.2 154.2,202.7 154.3,196.4 154.9,194.5 	"/>
</g>
<g id="Capa_9">
	<circle class="st6" cx="119.3" cy="187.1" r="6.2"/>
	<circle class="st6" cx="182.7" cy="187.1" r="6.2"/>
</g>
<g id="Capa_2">
	<g>
		<g>
			<path class="st7" d="M127.1,210.6c0,0-12.9-10-13.1-19.6c-0.2-9.6,1.5-13.2,1.5-13.2s3-23.6,17.2-23.1c0,0,12.7-20.4,15.2-20.1
				c2.4,0.4,9.4-6.2,15.7,14.1c0,0,3.9,4,11.2,7.1c7.3,3.2,15.2,37.7,15.2,37.7s-4.7,10.7-12.9,17.1"/>
			<path class="st7" d="M120,203.7c0,0-1.3,13.1,1.4,18.3s5.8,12.6,5.8,12.6s-5,2.3-3.8,4.9c1.2,2.6,9.2,1.4,9.2,1.4
				s2.2-1.5,6.2,0.3c4,1.8,5.6,3.7,7.3,4.4c1.6,0.7,4.7,2.4,4-1.2c-0.7-3.7-0.5-4.5-4.4-6.3c-3.8-1.7-6.9-1-9.1-3.5
				c-2.2-2.4-2.2-2.4-2.2-2.4"/>
			<path class="st7" d="M182.3,205.7c0,0,3.5,10-3.8,29.3c0,0-1.2,4.7,2.3,8.1c0.9,0.8,1,1.5,0.6,1.9c-1.1,1.3-6.3,1.1-6.3,1.1
				l-5.2-3.9l-12.7,2.2c0,0-3-2.4,1.1-4.7s10.7-2.2,11.4-3.9c0.6-1.7,1-6.2,1-6.2s-22.6,11.7-35.1-0.2"/>
		</g>
		<path class="st7" d="M183,214.1c0,0,8.6,11.7,2.7,20.2c0,0,5.6,1.9,5.8,5s-6.9,4.9-6.9,4.9l-4.2,0.7"/>
		<line class="st7" x1="148.7" y1="241.6" x2="156.4" y2="241.2"/>
		<path class="st7" d="M129.7,241.2c0,0-9.7,3.4-12,1.3c-2.3-2.2-2-6,1.4-5.7c0,0-2.2-5.4-2.2-10c0-3,0.8-5.7,3.9-6.2"/>
		<path class="st7" d="M116.3,226.9c-1.7-0.3-7.3-1.6-11.8-6.6c-4.8-5.4-5.2-11.5-5.2-13.1c-0.1-1.5-0.2-5,1.4-8.8
			c1.4-3.2,3-4.4,4.2-8c0.7-2.3,0.9-4.3,0.9-5.6c-0.8-0.8-2.1-1.9-4-2.8c-4.9-2.5-8.4-0.9-11.2-2.3c-2.3-1.1-4.8-4.5-4.9-14.7
			c0.4-1.8,1.7-5.9,5.2-9.6c3.5-3.7,7.4-5.1,9.2-5.6c0.7-0.2,5.4-1.7,9.8,1.1c3.2,2.1,4.4,5.2,4.7,6.1c0.3,0.6,1.6,3.5,0.5,6.9
			c-1.5,4.6-6.3,5.9-6.6,6c0.1-0.2,1.2-3.9-1.4-6.8c-2.4-2.7-5.9-2.3-6.2-2.3c-3.8-0.2-6.6,3-6.3,6.1c0.3,2.7,2.8,5,6,5
			c2.1-0.3,5.3-0.3,8.8,1c0.9,0.3,1.7,0.7,2.4,1.1c0.9,1.4,1.8,2.9,2.7,4.3c-0.9,7.5-1.9,15-2.8,22.5c-0.7,3.2,0.3,6.4,2.6,8.4
			c2.1,1.8,4.6,1.9,5.4,1.9"/>
		<g>
			<path d="M121,204.6c1.1,4,2,7.8,3.7,11.3c0.2,0.4,0.4,0.9,0.7,1.3c0.2,0.4,0.5,0.8,0.7,1.2c0.5,0.8,1.1,1.5,1.8,2.3
				c1.3,1.5,2.6,3.1,3.7,4.9c-1.7-1.1-3.3-2.4-4.8-3.8c-0.4-0.3-0.8-0.6-1.1-1c-0.4-0.4-0.8-0.8-1.1-1.2c-0.3-0.4-0.7-0.9-0.9-1.3
				c-0.3-0.5-0.5-0.9-0.8-1.4c-0.9-1.9-1.5-4-1.8-6C120.7,208.7,120.7,206.6,121,204.6z"/>
		</g>
		<path class="st7" d="M141,210.6c0,0,6,2.5,13,1.8"/>
		<path class="st7" d="M158.5,211.6c0,0,4.7-1,6.4-3.1"/>
		<g>
			<path d="M173.7,225.9c0.5-1.7,1.2-3.3,2-4.9c0.7-1.6,1.5-3.1,2.3-4.6c0.8-1.5,1.6-3,2.5-4.5l0.6-1.1c0.2-0.4,0.4-0.7,0.6-1.1
				c0.2-0.4,0.4-0.8,0.6-1.1c0.2-0.4,0.3-0.8,0.5-1.2c0.1,0.4,0.1,0.9,0.1,1.3c0,0.5-0.1,0.9-0.2,1.3c-0.2,0.9-0.4,1.7-0.7,2.6
				c-0.6,1.7-1.3,3.3-2.1,4.8c-0.8,1.5-1.7,3-2.7,4.5C176,223.2,174.9,224.6,173.7,225.9z"/>
		</g>
		<g>
			<path d="M119.7,191.4c1.9,0.8,3.7,1.6,5.5,2.4c1.9,0.8,3.7,1.6,5.5,2.5l2.6,1.2c-0.1,0,0,0,0.1,0c0.1,0,0.2,0,0.3-0.1
				c0.2-0.1,0.4-0.1,0.6-0.2c0.4-0.2,0.9-0.4,1.4-0.6c1.8-0.9,3.7-1.6,5.7-2.2c3.9-1.3,8.2-1.6,12.3-1.1c4.1,0.6,8.1,2.1,11.7,4.1
				l-0.3-0.1c1.7,0.2,3.5,0.2,5.3,0c1.8-0.2,3.5-0.6,5.1-1.3c1.6-0.7,3.1-1.7,4.4-3l2-1.9c0.3-0.3,0.7-0.6,1-1l0,0c0,0,0,0,0,0.1
				c0,0.1,0.1,0.1,0.1,0.1c0,0,0.1,0,0,0l-0.1,0l-0.1,0.1l-0.3,0.2L182,191l0.4-0.5l0.2-0.3l0.1-0.1l0.1-0.1c0,0,0,0,0.1,0
				c0,0,0.1,0,0.1,0.1c0,0.1,0,0.1,0,0.1l0,0c-0.3,0.4-0.6,0.7-0.8,1.1l-1.7,2.1c-1.2,1.4-2.7,2.7-4.4,3.6c-1.7,0.9-3.5,1.5-5.4,1.8
				c-1.9,0.3-3.8,0.4-5.7,0.2l-0.1,0l-0.2-0.1c-3.5-1.8-7.2-3.2-11.1-3.7c-1.9-0.3-3.9-0.3-5.8-0.2c-1.9,0.2-3.9,0.5-5.8,1
				c-1.9,0.5-3.7,1.2-5.6,2c-0.5,0.2-0.9,0.4-1.4,0.5c-0.3,0.1-0.5,0.2-0.8,0.2c-0.3,0.1-0.6,0.2-1.2,0c-0.1,0-0.1-0.1-0.2-0.1
				l-0.1,0l-0.2-0.1l-0.3-0.2l-0.7-0.4l-1.3-0.7c-1.8-1-3.5-1.9-5.3-3C123.2,193.5,121.4,192.5,119.7,191.4z"/>
		</g>
		<path class="st7" d="M123.3,166.3c1.1-3.4,4-5.7,7.1-5.9c4.1-0.3,8.2,3.2,8.7,8.2c0.1,1.7,0,3.9-0.4,6.4c-0.3,2.1-0.9,3.9-1.4,5.4
			c-1.9,4.1-6.3,6.1-10.1,5c-2.9-0.9-5.1-3.6-5.6-6.9c-0.3-1.6-0.5-4,0-6.8C122,169.4,122.6,167.6,123.3,166.3z"/>
		<path class="st7" d="M179.1,166.3c-1.1-3.4-4-5.7-7.1-5.9c-4.1-0.3-8.2,3.2-8.7,8.2c-0.1,1.7,0,3.9,0.4,6.4
			c0.3,2.1,0.9,3.9,1.4,5.4c1.9,4.1,6.3,6.1,10.1,5c2.9-0.9,5.1-3.6,5.6-6.9c0.3-1.6,0.5-4,0-6.8
			C180.4,169.4,179.7,167.6,179.1,166.3z"/>
		<g>
			<path d="M145.2,176.9c0.9-0.6,1.9-1,2.9-1.3c1-0.3,2.1-0.5,3.1-0.5c1.1-0.1,2.1,0,3.2,0.3c1,0.3,2.2,0.7,2.9,1.6
				c-1.1-0.1-2,0-3,0l-2.9,0.2c-1,0.1-2,0.1-3,0.1C147.3,177.1,146.3,177.1,145.2,176.9z"/>
		</g>
		<g>
			<path d="M150.7,156.4c-0.1-1.9-0.2-3.8-0.2-5.6l-0.1-5.6c0-1.9-0.2-3.8,0-5.6c0.2-1.9,0.5-3.7,1.1-5.6l0.2,0
				c0.5,1.9,0.7,3.8,0.7,5.7c0.1,1.9-0.2,3.7-0.4,5.6l-0.5,5.6c-0.2,1.9-0.3,3.7-0.6,5.6L150.7,156.4z"/>
		</g>
		<path class="st8" d="M145.2,184.5c0,0-5.1,4.5-3.5,4.9c1.6,0.4,3.5,0,3.5,0V184.5z"/>
		<path class="st8" d="M156.7,184.5c0,0,0.8,5.1,1.5,5c0.8,0,2,0.3,2-0.9S156.7,184.5,156.7,184.5z"/>
		<path class="st7" d="M148.2,194.5c0,0,4.9,5.1,3.5,12.8c0,0-0.3,0.5,1.6,3.3c1.9,2.8-0.3,4,0.6,7.3c0.9,3.3,1.7,4.6,1.7,4.6
			s7.7-0.1,7.7-1.9c0-1.8-3.6-2.1-3.6-3.2s-1.1-7.2-3.9-10.5c-2.7-3.3-1.2-11.8-1.2-11.8L148.2,194.5z"/>
		<g>
			<path d="M122.7,167.5c-0.5,0.5-1.3,0.6-2,0.5c-0.7-0.1-1.4-0.6-1.8-1.1c-0.5-0.6-0.7-1.3-0.8-1.9c0-0.3,0-0.7,0.1-1
				c0.1-0.3,0.2-0.6,0.4-0.9c0.3,0.3,0.4,0.5,0.6,0.8c0.2,0.2,0.3,0.5,0.5,0.7c0.3,0.4,0.5,0.8,0.8,1.1
				C121,166.3,121.5,166.8,122.7,167.5z"/>
		</g>
		<g>
			<path d="M124.3,164.2c-0.9,0.1-1.7-0.1-2.5-0.5c-0.8-0.4-1.5-1.1-2-1.9c-0.2-0.4-0.4-0.9-0.4-1.4c-0.1-0.5,0-0.9,0-1.3
				c0.1-0.8,0.2-1.6,0.6-2.4c0.5,0.7,0.8,1.5,1,2.3c0.2,0.9,0.3,1.4,0.6,1.9c0.3,0.5,0.7,1.1,1.1,1.6
				C123.2,163,123.7,163.5,124.3,164.2z"/>
		</g>
		<g>
			<path d="M127.3,161.3c-0.9,0-1.8-0.3-2.6-0.8c-0.8-0.5-1.4-1.2-1.8-2.2c-0.2-0.5-0.3-0.9-0.4-1.4c0-0.5,0-0.9,0-1.3
				c0.1-0.8,0.2-1.7,0.6-2.5c0.5,0.8,0.8,1.6,1,2.4c0.2,0.9,0.3,1.5,0.6,2.1C125.2,158.8,126.2,159.9,127.3,161.3z"/>
		</g>
		<g>
			<path d="M179.8,167.6c1.2-0.7,1.7-1.3,2.3-1.9c0.3-0.3,0.5-0.7,0.8-1.1c0.1-0.2,0.3-0.4,0.5-0.7c0.2-0.2,0.3-0.5,0.6-0.8
				c0.2,0.3,0.3,0.6,0.4,0.9c0,0.3,0.1,0.7,0.1,1c-0.1,0.7-0.3,1.3-0.8,1.9c-0.4,0.6-1.1,1-1.8,1.1
				C181.1,168.2,180.3,168.1,179.8,167.6z"/>
		</g>
		<g>
			<path d="M178.2,164.2c0.6-0.7,1.1-1.2,1.6-1.7c0.5-0.5,0.9-1.1,1.1-1.6c0.3-0.5,0.4-1,0.6-1.9c0.2-0.8,0.5-1.5,1-2.3
				c0.4,0.8,0.5,1.6,0.6,2.4c0,0.4,0.1,0.7,0,1.3c0,0.5-0.2,1-0.4,1.4c-0.4,0.9-1.2,1.5-2,1.9C180,164.1,179.1,164.3,178.2,164.2z"
				/>
		</g>
		<g>
			<path d="M175.2,161.4c1.1-1.4,2.1-2.5,2.6-3.8c0.3-0.6,0.4-1.2,0.6-2.1c0.2-0.8,0.5-1.6,1-2.4c0.4,0.9,0.5,1.7,0.6,2.5
				c0,0.4,0.1,0.8,0,1.3c0,0.5-0.2,1-0.4,1.4c-0.4,0.9-1.1,1.7-1.8,2.2C177,161.1,176.1,161.4,175.2,161.4z"/>
		</g>
	</g>
</g>
<g id="Capa_4">
	<ellipse class="st9" cx="130.6" cy="169.6" rx="8" ry="8.6"/>
	<ellipse class="st9" cx="172" cy="168.9" rx="7.4" ry="8"/>
</g>
<g id="Capa_10">
	<circle class="st3" cx="132.2" cy="167" r="2.2"/>
	<circle class="st3" cx="127.2" cy="172.3" r="0.9"/>
	<circle class="st3" cx="174.7" cy="166.5" r="2.4"/>
	<circle class="st3" cx="169.7" cy="172.2" r="0.8"/>
</g>
</svg>
