<?xml version="1.0" encoding="utf-8"?>
<!-- Generator: Adobe Illustrator 24.2.1, SVG Export Plug-In . SVG Version: 6.00 Build 0)  -->
<svg version="1.1" xmlns="http://www.w3.org/2000/svg" xmlns:xlink="http://www.w3.org/1999/xlink" x="0px" y="0px"
	 viewBox="0 0 1190.6 1683.8" style="enable-background:new 0 0 1190.6 1683.8;" xml:space="preserve">
<style type="text/css">
	.st0{fill:#9CD7F4;}
	.st1{fill:#848484;}
	.st2{fill:#545454;}
	.st3{fill:#3B3B3B;}
	.st4{fill:#41A8CC;}
	.st5{fill:none;stroke:#010202;stroke-width:8;stroke-miterlimit:10;}
	.st6{fill:#010202;stroke:#010202;stroke-width:8;stroke-miterlimit:10;}
	.st7{fill:#FFFFFF;}
	.st8{opacity:0.72;fill:#FFFFFF;}
	.st9{opacity:0.69;fill:#FFFFFF;}
</style>
<g id="Capa_4">
	<polygon class="st0" points="626.7,851.2 626.7,772.2 648.1,714.5 677.3,670.5 741.7,625.9 805.6,617.4 859.2,628.1 902.2,683 
		910.4,723 895.9,775.8 865,821.7 826.8,851.2 789.6,869.6 768.6,882.9 739.9,884.6 708,828.6 682.2,829.4 651.9,838.6 	"/>
	<polygon class="st0" points="373.5,893.6 366.7,884.6 328.9,876.2 277.4,849.6 237.8,807.9 210,744.9 219.3,687.5 239.1,657.7 
		265.8,634.7 332.2,608.8 387.3,608.8 452.5,655 482.9,692.1 507.8,739.4 519.5,778.1 519.5,812.2 519.5,823.2 493.3,807.9 
		453.7,806.8 410.8,825.9 384.3,865.9 	"/>
	<polygon class="st1" points="496.3,714.5 521.7,695.8 568.8,677.1 608.9,680.3 641.7,695.8 651.9,714.5 630,772.2 625.4,829.5 
		626.8,859.4 614.2,871 584.5,876.2 562.9,876.2 529.2,827.4 525.1,816.7 508.1,739.4 	"/>
</g>
<g id="Capa_3">
	<polygon class="st1" points="432.4,1012.3 443,1061 463.5,1096.2 507.4,1125.3 567.1,1133.6 638.1,1122.3 676.6,1100.1 700,1072.9 
		715.2,1032 715.2,1021.6 711.2,1021.6 677.4,1032 644.6,1021.6 610.2,986 595.3,929.5 606.6,890.8 611.3,871 567.1,874.3 
		566.8,905.5 567.1,937.8 554.5,972.5 530.3,1002.3 504.8,1012.5 481.3,1021.6 447.6,1017 	"/>
	<polygon class="st1" points="390.2,972.5 377.9,994 358.6,1016.1 338.9,1048.2 329,1071.8 326.5,1103.6 342.3,1136.5 372.1,1156.2 
		386.3,1152.8 405.6,1119.5 411.9,1084.4 405.7,1051.6 406.2,1038.2 424.1,1009.7 	"/>
	<polygon class="st1" points="374.6,913.3 315.2,931.2 280,950.6 256.4,983.7 256.4,1018.1 269.6,1039.1 283.6,1049.3 304.3,1041.7 
		331.8,1014.9 344.4,991.5 347.3,972.5 369.7,965.5 384.1,972.5 391.4,985.2 	"/>
	<polygon class="st1" points="715.2,1021.6 740.8,1029.6 749.5,1064.3 745.5,1100.2 739.1,1129.1 741.8,1143.9 760.5,1150.7 
		791.5,1140.4 805.5,1120.9 809.1,1086.1 805.6,1049.3 792.8,1018.8 778.1,1002.3 772.2,997.4 777.4,970 784.7,964.5 809.1,972.5 
		819.5,994.2 828.8,1021.6 845,1049.3 862.2,1057.6 873.5,1057.6 895.9,1037 892.5,1004.1 877.5,964.5 824.4,929.5 784.3,915.7 
		776.4,895.1 776.8,876.2 727.4,860.5 760.5,924.2 766.2,940.6 760.5,972.5 736.5,1002.3 719.2,1013.4 	"/>
</g>
<g id="Capa_5">
	<path class="st2" d="M496.3,714.5l15.8,36.5l5.8,32.9l10.5,43.6l25.6,43.6l17.4,3.4l39.8-3.4l15.2-16.5l-1.6-37.8l1.8-56.4
		l25.2-45.9l-7.7-14.1c0,0-77.2,54.3-77.2,76.3C567.1,776.6,521.6,696.8,496.3,714.5z"/>
	<path class="st2" d="M554.1,1131.8c0,0-95.3-45.7-76.9-67.5c18.4-21.8,8-29.1,42.3-42.8c34.3-13.7,68.3-33.7,68.3-33.7l28.3,33.7
		l51.1,38.3l15.1,19.1l-13.1,25.5l39.4-48.4l8.1-37.5l-39.3,13.5l-44.5-18.2l-26.3-35.7l-9.4-41.4l2.3-43.2l14.2-17.4l-53.5-4
		l-0.2,21.4l5.9,19.7l-6,24.6l-2.5,22.9l-19.8,30.5l-12,11.1l-32.3,16.3l-27.6,0.9l-28-1.1l2.7,30.9l17.5,40.1l35.4,26.5l19.9,11.3
		l25.2,4.5H554.1z"/>
	<path class="st3" d="M387.2,977.8c0,0-39.7,43.8-34.6,76.5c5.1,32.8-13.2,30.4-0.5,63.7c12.7,33.4,14.1,37.3,20,38.1
		c5.8,0.8,19.3-10,19.3-10l19.4-47.5l-5-53.7l1.7-9.8l16.5-25.4l-24.5-21.8L387.2,977.8z"/>
	<path class="st3" d="M365.6,914.1c0,0-65.1,30.1-70.2,45.6c-5.1,15.5-21.4,45.5-12.3,61.9c9.2,16.4,12.4,24.9,12.4,24.9l31.5-24.9
		l17.9-33.7l2.6-16.3l27-6.3l14.6,16l-14.6-51.7v-16.3L365.6,914.1z"/>
	<path class="st3" d="M748.3,987.6c0,0,43.4,58.5,44.4,61.7c1,3.2,9.3,87.6-11.5,94.5c-20.8,6.9-32.9,5.9-32.9,5.9l-9.2-20.6
		l3.6-22.8l6.1-33.7l-7.1-40.5l-10.2-10.5l-14.8-3L748.3,987.6z"/>
	<path class="st3" d="M768.6,913.3c0,0,65.2,8,83.5,34.5s27.5,71.1,18.3,84.3c-9.2,13.2-21.3,21.1-21.3,21.1l-24.6-37.1l-12-34.8
		l-18.1-15.6l-9.6-1.2l-15.4,20.3l-18.4,24.9l-2.5-22.2l12.1-33.4L768.6,913.3z"/>
	<path class="st4" d="M628,796.7c0,0,246.2-95.4,212.6-172.4l22.1,4.9l25.2,27.5l18.5,39l3.9,55.2l-18.2,36.4l-33.9,39.5l-63,39.9
		l-46.9,21.8l-31.7-52.8l-17.4-5.5l-47.4,8.2l-25.2,20.9L628,796.7z"/>
	<path class="st4" d="M512.1,751c0,0-291.8,4.2-265.5-99.7l-32.3,49.1l-3.1,37l5.4,34.2l18.8,33.4l28.8,33.6l38.1,26.7l45.1,17.7
		l24.3,5.8l1.7,4.9l17.9-50.4l32.7-23.2l40.9-15l43.2,8.5l20.2,14l-5.3-36.1L512.1,751z"/>
</g>
<g id="Capa_2">
	<path class="st5" d="M623.6,859.4c2.3-2.2,3.5-5.2,3.2-8.2c-12.9-111.9,43.4-204.8,124.2-228.3c14.8-4.3,55.1-13.5,111.9,6.4
		c1.7,0.6,3.2,1.5,4.4,2.7c14.5,14.3,40.7,44.8,43,86.4c3.5,62.1-47.1,124.7-128.3,154.1c-5.4,2-8.6,7.2-7.1,12.3
		c0.8,3,1.5,6.4,1.6,10.2c0.1,3.2-0.2,6.1-0.7,8.7c-1,5.4,2.7,10.5,8.6,11.9c58.8,14,100.4,48.4,108.2,88.5
		c2.5,12.7,1.1,27-5.6,42.7c-0.5,1.2-1.3,2.3-2.2,3.2c-7.4,7.3-40,33.2-64.3-53.5c-1.5-4.5-4.3-11.1-10-17.7
		c-5.1-6-10.9-10.2-16.1-13.1c-5.9-3.3-13.8-1.3-16.9,4.3c-2.7,4.9-5.4,9.9-8.1,14.8c-2.4,4.3-1.1,9.5,2.9,12.6
		c6.5,5,14.1,12,20.6,21.4c12.6,18.4,14.1,35.5,15.3,51.4c2,26.7,4,54.6-16.6,70.1c-12.1,9.1-27.4,10.5-37,10.4
		c0,0-21.4,1.4-13.8-31.4c5-21.6,7.4-27.2,8.5-33.9c0,0,0.8-6.5,0.7-13.9c-0.1-8.6-1.4-23.3-9.1-42c-1.8-4.5-6.9-7.3-12.2-6.8
		c-0.9,0.1-1.9,0.2-2.8,0.2c-5.4,0.5-9.8,4.2-10.6,9c-2.3,14.3-8.9,38-29.7,59.6c-38.9,40.7-95.8,41.2-107.2,41
		c-0.7,0-1.4,0-2.1,0.1c-9.1,1.3-68.7,7.7-109.3-32.9c-28.8-28.8-29.8-63.2-28.8-77.8c0.3-4-2-7.8-5.8-9.8l0,0
		c-6.2-3.2-14.2-0.8-16.9,5.2c-3.1,6.9-6.2,13.8-9.2,20.7c-1,2.2-1.1,4.6-0.4,6.8c4.9,15.3,12.6,48.7-4.2,84
		c-4.5,9.4-9.9,17.3-15.3,23.8c-3.3,3.9-9.1,5.4-14.2,3.4c-9.7-3.7-23.5-11-33.8-24.5c-24.8-32.7-5.4-71.2-3.2-75.2
		c0.1-0.2,0.2-0.5,0.3-0.7c5.6-12.8,14.1-28.7,27.4-45.1c6.6-8.2,13.4-15.3,19.9-21.3c2.6-2.4,3.7-5.8,3.1-9.1
		c-0.4-2.1-0.9-4.3-1.3-6.4c-1.2-6.1-8.1-10-14.8-8.3l-17.3,4.3c-4.8,1.2-8.3,5-8.6,9.4c-0.8,10-4,26.3-16.7,42.3
		c-11.7,14.8-26.3,22.8-35.9,26.9c-4.3,1.8-9.3,1.2-12.9-1.6c-8.1-6.3-20.1-18.1-23.7-35.4c-5.7-27.2,11.7-56.9,43.9-72.8
		c11.5-5.5,24.8-11.2,39.8-16.4c9.6-3.3,18.7-6,27.4-8.3c5.2-1.4,8.7-5.8,8.4-10.6c-0.2-3.3-0.4-6.6-0.6-9.9
		c-0.3-5.1-4.6-9.2-10.2-9.9c-16-1.9-39.9-6.9-64.8-20.5c-30.3-16.5-47.3-37.5-55.2-49c-0.3-0.4-0.6-0.8-1-1.2
		c-6.8-7.3-42.4-48.1-30.6-102.7c9.8-45.1,45.4-69.8,54.1-75.5c7.4-5.3,43-29.5,94-25.5c55.6,4.4,87.1,39.2,92.7,45.7
		c0.1,0.2,0.3,0.3,0.4,0.5c13.1,13.4,27.9,31.3,40.6,53.9c24.5,43.5,30.1,84.3,31,110.6c0.1,2.8,1.5,5.5,3.8,7.4
		c3.7,3,7.5,6.5,11.2,10.5c6.6,7.2,14,17.2,18.9,29.6c1.9,4.8,7.4,7.6,12.9,6.8c8.3-1.2,20.1-2.2,28.5-0.4c4.1,0.9,8.4-0.3,11.3-3
		C615.4,867.2,619.5,863.3,623.6,859.4z"/>
	<path class="st5" d="M373,884.6"/>
	<ellipse class="st5" cx="470.8" cy="913.3" rx="96.3" ry="108.3"/>
	
		<ellipse transform="matrix(0.1524 -0.9883 0.9883 0.1524 -340.4371 1462.1392)" class="st5" cx="682.2" cy="929.5" rx="100.6" ry="83.6"/>
	<path class="st5" d="M496.3,714.5c0,0,79.1-78.9,155.6-7.4"/>
	<ellipse class="st6" cx="493.3" cy="883.7" rx="61.2" ry="67"/>
	<ellipse class="st6" cx="699.3" cy="905.5" rx="61.2" ry="67"/>
	<ellipse class="st6" cx="559.9" cy="1026.8" rx="5.9" ry="5.2"/>
	<ellipse class="st6" cx="593.6" cy="1026.8" rx="5.9" ry="5.2"/>
</g>
<g id="Capa_6">
	<ellipse class="st7" cx="506.6" cy="854.8" rx="18.2" ry="16.2"/>
	<ellipse class="st7" cx="491.2" cy="894.8" rx="6.9" ry="6.1"/>
	
		<ellipse transform="matrix(6.383675e-02 -0.998 0.998 6.383675e-02 -190.6487 1536.1401)" class="st7" cx="723.4" cy="869.7" rx="14.8" ry="16.6"/>
	<ellipse class="st7" cx="698.9" cy="912" rx="7.3" ry="6.5"/>
	<path class="st8" d="M472,777.9c0,0-82.2-158.3-124.1-132.7c-41.8,25.5,22.2,38.8,22.2,38.8s60.5,81.7,78.7,94.3
		S481.2,804.3,472,777.9z"/>
	<path class="st8" d="M662.2,778.6c0,0,82.2-158.3,124.1-132.7c41.8,25.5-22.2,38.8-22.2,38.8s-60.5,81.7-78.7,94.3
		C667.2,791.6,653,805,662.2,778.6z"/>
	<path class="st9" d="M571.9,691.3c0,0-30.9,23.6-15.7,34s18.2,21.5,27.1,3.7c8.9-17.8,15.6-22.2,4.8-28.8
		C577.3,693.5,571.9,691.3,571.9,691.3z"/>
</g>
</svg>
